<?xml version="1.0" encoding="UTF-8"?>
<svg width="30px" height="30px" viewBox="0 0 30 30" version="1.1" xmlns="http://www.w3.org/2000/svg" xmlns:xlink="http://www.w3.org/1999/xlink">
    <!-- Generator: Sketch 50.2 (55047) - http://www.bohemiancoding.com/sketch -->
    <title>check</title>
    <desc>Created with Sketch.</desc>
    <defs></defs>
    <g id="Page-1" stroke="none" stroke-width="1" fill="none" fill-rule="evenodd">
        <g id="check">
            <rect id="Rectangle-2" fill="#FA6B30" x="0" y="0" width="30" height="30"></rect>
            <path d="M24.4445549,7.47747368 C23.8079233,6.84084211 22.8240381,6.84084211 22.1874066,7.47747368 L12.0013014,18.1265836 L6.73462199,12.8599043 C6.09799041,12.2232727 5.11410525,12.2232727 4.47747368,12.8599043 C3.84084211,13.4965358 3.84084211,14.480421 4.47747368,15.1170526 C4.47747368,15.1170526 10.612287,21.5412439 10.7859138,21.6569951 C11.2489186,22.1199999 11.9434258,22.2357511 12.5221818,22.0042487 C12.7536841,21.9463731 12.9851865,21.8306219 13.1588133,21.5991195 C13.2745645,21.4833683 24.3866793,9.85037318 24.3866793,9.85037318 C25.0233108,9.21374161 25.0811864,8.17198085 24.4445549,7.47747368 Z" id="Shape" fill="#FFFFFF" fill-rule="nonzero"></path>
        </g>
    </g>
</svg>